<?xml version="1.0" encoding="UTF-8" standalone="no"?>
<!-- Generator: Adobe Illustrator 16.0.3, SVG Export Plug-In . SVG Version: 6.00 Build 0)  -->

<svg
   xmlns:dc="http://purl.org/dc/elements/1.1/"
   xmlns:cc="http://creativecommons.org/ns#"
   xmlns:rdf="http://www.w3.org/1999/02/22-rdf-syntax-ns#"
   xmlns:svg="http://www.w3.org/2000/svg"
   xmlns="http://www.w3.org/2000/svg"
   xmlns:sodipodi="http://sodipodi.sourceforge.net/DTD/sodipodi-0.dtd"
   xmlns:inkscape="http://www.inkscape.org/namespaces/inkscape"
   version="1.1"
   id="Ebene_1"
   x="0px"
   y="0px"
   width="340.154px"
   height="126.123px"
   viewBox="0 0 340.154 126.123"
   enable-background="new 0 0 340.154 126.123"
   xml:space="preserve"
   sodipodi:docname="system.svg"
   inkscape:version="0.92.0 r15299"><metadata
     id="metadata54"><rdf:RDF><cc:Work
         rdf:about=""><dc:format>image/svg+xml</dc:format><dc:type
           rdf:resource="http://purl.org/dc/dcmitype/StillImage" /></cc:Work></rdf:RDF></metadata><defs
     id="defs52" /><sodipodi:namedview
     pagecolor="#ffffff"
     bordercolor="#666666"
     borderopacity="1"
     objecttolerance="10"
     gridtolerance="10"
     guidetolerance="10"
     inkscape:pageopacity="0"
     inkscape:pageshadow="2"
     inkscape:window-width="1366"
     inkscape:window-height="705"
     id="namedview50"
     showgrid="false"
     inkscape:zoom="1.6698319"
     inkscape:cx="103.56318"
     inkscape:cy="43.134613"
     inkscape:window-x="-8"
     inkscape:window-y="-8"
     inkscape:window-maximized="1"
     inkscape:current-layer="g47" /><g
     id="g47"><path
       d="M277.724,70.452H62.576c-19.423,0-35.228-15.803-35.228-35.227S43.154,0,62.576,0h215.146   c19.426,0,35.229,15.802,35.229,35.226C312.95,54.649,297.149,70.452,277.724,70.452z M62.576,8.333   c-14.829,0-26.895,12.064-26.895,26.895c0,14.828,12.065,26.894,26.895,26.894h215.146c14.827,0,26.896-12.065,26.896-26.894   c0-14.83-12.067-26.895-26.896-26.895H62.576z"
       id="path2"
       fill="#FF0000" /><path
       d="M90.208,51.562V19.047h-9.779v22.735L66.006,19.047H55.494v32.515h9.779V28.093l15.155,23.469H90.208z"
       id="path4"
       fill="#FF0000" /><path
       d="M106.099,51.562V29.56h-9.778v22.002H106.099z"
       id="path6"
       fill="#FF0000" /><path
       d="M106.099,24.914v-5.867h-9.778v5.867H106.099z"
       id="path8"
       fill="#FF0000" /><path
       id="_x33_162"
       d="M140.324,51.562V36.403c0-3.178-6.112-7.578-9.289-7.578h-2.935   c-2.199,0-4.645,1.956-6.845,2.934V29.56h-9.779v22.002h9.779V36.403c0-1.467,3.422-3.178,4.89-3.178   c1.467,0,4.155,1.711,4.155,3.178v15.158H140.324z"
       fill="#FF0000" /><path
       id="_x33_162_1_"
       d="M222.143,52.319V37.162c0-3.179-6.109-7.578-9.292-7.578h-2.932   c-2.201,0-4.646,1.956-6.848,2.933v-2.199h-9.777v22.002h9.777V37.162c0-1.466,3.424-3.179,4.891-3.179   c1.466,0,4.154,1.713,4.154,3.179v15.157H222.143z"
       fill="#FF0000" /><path
       d="M156.215,51.562V29.56h5.134v-2.934h-5.134v-4.645h-10.021v4.645h-5.135v2.934h5.135v22.002H156.215z"
       id="path12"
       fill="#FF0000" /><path
       d="M175.038,28.826c-7.822,0-14.422,5.378-14.422,11.979c0,6.846,6.6,12.223,14.422,12.223   c6.846,0,12.469-3.911,13.936-9.045h-10.022v2.934c0,2.445-1.709,3.18-3.91,3.18c-2.2,0-3.668-0.734-3.668-3.18v-6.111h18.093   C189.464,34.205,183.108,28.826,175.038,28.826z M175.038,31.026c2.201,0,3.912,1.467,3.912,3.912v2.199h-7.578v-2.199   C171.372,32.493,172.839,31.026,175.038,31.026z"
       id="path14"
       fill="#FF0000" /><path
       d="M271.364,28.826c-8.069,0-14.426,5.378-14.426,11.979c0,6.846,6.354,12.223,14.426,12.223   c7.819,0,14.422-5.377,14.422-12.223C285.782,34.205,279.183,28.826,271.364,28.826z M271.364,31.026   c2.196,0,3.666,1.467,3.666,3.912v11.978c0,2.444-1.47,3.179-3.666,3.179c-2.444,0-3.914-0.734-3.914-3.179V34.938   C267.448,32.493,268.917,31.026,271.364,31.026z"
       id="path16"
       fill="#FF0000" /><path
       d="M243.247,19.047v11.979c0,0-2.936-2.2-6.848-2.2c-6.111,0-11.244,5.378-11.244,11.246   c0,6.112,5.135,12.224,11.244,12.224c3.912,0,6.848-1.467,6.848-1.467v0.732h9.779V19.047H243.247z M239.579,32.493   c2.199,0,3.668,1.712,3.668,3.912v9.045c0,2.201-1.469,2.934-3.668,2.934c-2.443,0-3.912-0.732-3.912-2.934v-9.045   C235.667,34.205,237.136,32.493,239.579,32.493z"
       id="path18"
       fill="#FF0000" /><g
       id="g22"><path
         d="M287.006,29.216c-2.775,0-5.036-2.258-5.036-5.035c0-2.959,2.213-5.28,5.036-5.28    c2.729,0,5.036,2.417,5.036,5.28C292.042,26.862,289.692,29.216,287.006,29.216z M287.006,19.683c-2.427,0-4.253,1.934-4.253,4.5    c0,2.344,1.908,4.254,4.253,4.254c2.229,0,4.254-2.028,4.254-4.254C291.26,21.784,289.276,19.683,287.006,19.683z M287.89,26.33    l-0.864-1.515h-1.095v1.321h-0.78v-4.546h2.104c0.979,0,1.488,0.813,1.488,1.613c0,0.615-0.303,1.238-0.885,1.492l0.711,1.248    L287.89,26.33z M285.931,24.036h1.321c0.219,0,0.395-0.079,0.521-0.235c0.118-0.149,0.188-0.368,0.188-0.597    c0-0.311-0.151-0.832-0.709-0.832h-1.321V24.036L285.931,24.036z"
         id="path20"
         fill="#FF0000" /></g><path
       id="_x32_399"
       d="m 53.136827,99.231 v -14.18 c 0,-2.688 -2.658615,-5.379 -5.317231,-5.379 H 27.516633 v 19.559 h 6.285169 V 86.032 c 0,-0.979 0.723729,-1.957 1.691666,-1.957 h 9.666524 c 0.967938,0 1.934887,0.979 1.934887,1.957 v 13.199 h 6.041948 z"
       style="fill:#000000;fill-opacity:1;stroke:#000000;stroke-width:0.9943341"
       inkscape:connector-curvature="0" /><path
       id="_x32_399_1_"
       d="m 220.86194,99.231 v -14.18 c 0,-2.688 -2.65762,-5.379 -5.31525,-5.379 h -20.30395 v 19.559 h 6.2822 V 86.032 c 0,-0.979 0.72768,-1.957 1.69365,-1.957 h 9.6685 c 0.96793,0 1.93092,0.979 1.93092,1.957 v 13.199 h 6.04393 z"
       style="fill:#000000;fill-opacity:1;stroke:#000000;stroke-width:0.9943341"
       inkscape:connector-curvature="0" /><path
       id="_x32_399_2_"
       d="m 312.67068,99.231 v -14.18 c 0,-2.688 -2.65762,-5.379 -5.31821,-5.379 H 287.0495 v 19.559 h 6.28221 V 86.032 c 0,-0.979 0.72373,-1.957 1.69463,-1.957 h 9.66553 c 0.96794,0 1.93292,0.979 1.93292,1.957 v 13.199 h 6.04589 z"
       style="fill:#000000;fill-opacity:1;stroke:#000000;stroke-width:0.9943341"
       inkscape:connector-curvature="0" /><path
       id="_x33_177"
       d="m 257.86207,99.231 v -14.18 c 0,-2.688 -2.65762,-5.379 -5.31821,-5.379 h -27.31285 v 19.559 h 6.28517 V 86.032 c 0,-0.979 0.72274,-1.957 1.68969,-1.957 h 3.62655 c 0.72571,0 1.69266,0.979 1.69266,1.957 v 13.199 h 6.28615 V 86.032 c 0,-0.979 0.72275,-1.957 1.6897,-1.957 h 3.62655 c 0.72471,0 1.69166,0.979 1.69166,1.957 v 13.199 h 6.04293 z"
       style="fill:#000000;fill-opacity:1;stroke:#000000;stroke-width:0.9943341"
       inkscape:connector-curvature="0" /><path
       id="_x33_181"
       d="M 23.166351,99.231 H 7.2136703 c -2.6576267,0 -5.3182195,-1.71 -5.3182195,-4.398 v -15.4 H 23.165363 v 4.645 H 8.904348 c -0.7237288,0 -1.6916664,0.734 -1.6916664,1.712 0,0.979 0.9679376,1.712 1.6916664,1.712 h 13.294066 v 3.911 H 8.904348 c -0.7237288,0 -1.6916664,0.979 -1.6916664,1.712 0,0.979 0.9679376,1.955 1.6916664,1.955 h 14.261015 l 9.88e-4,4.151 0,0 z"
       style="fill:#000000;fill-opacity:1;stroke:#000000;stroke-width:0.9943341"
       inkscape:connector-curvature="0" /><path
       id="_x33_181_1_"
       d="M 101.73343,99.478 H 85.77976 c -2.657626,0 -5.318219,-1.711 -5.318219,-4.398 V 79.677 h 21.271889 v 4.645 H 87.470437 c -0.722739,0 -1.690677,0.734 -1.690677,1.714 0,0.98 0.967938,1.711 1.690677,1.711 H 100.7645 v 3.91 H 87.470437 c -0.722739,0 -1.690677,0.979 -1.690677,1.714 0,0.979 0.967938,1.954 1.690677,1.954 h 14.262993 v 4.153 l 0,0 z"
       style="fill:#000000;fill-opacity:1;stroke:#000000;stroke-width:0.9943341"
       inkscape:connector-curvature="0" /><path
       id="_x33_181_2_"
       d="m 283.58312,99.231 h -15.95466 c -2.65763,0 -5.32019,-1.711 -5.32019,-4.398 v -15.4 h 21.27287 v 4.645 h -14.26101 c -0.72373,0 -1.69463,0.734 -1.69463,1.712 0,0.979 0.96793,1.712 1.69463,1.712 h 13.2911 v 3.911 h -13.2911 c -0.72373,0 -1.69463,0.979 -1.69463,1.712 0,0.979 0.96793,1.955 1.69463,1.955 h 14.26101 v 4.154 h 0.002 v -0.003 z"
       style="fill:#000000;fill-opacity:1;stroke:#000000;stroke-width:0.9943341"
       inkscape:connector-curvature="0" /><path
       id="_x32_391"
       d="m 55.796431,79.675 v 4.4 h 6.283192 c 1.692654,0 1.692654,0 1.692654,1.957 v 13.199 h 6.041948 V 86.032 c 0,-1.957 0,-1.957 1.933899,-1.957 h 6.041948 v -4.4 H 55.796431 z"
       style="fill:#000000;fill-opacity:1;stroke:#000000;stroke-width:0.9943341"
       inkscape:connector-curvature="0" /><path
       id="_x32_391_1_"
       d="m 132.59868,79.675 v 4.4 h 6.28319 c 1.69068,0 1.69068,0 1.69068,1.957 v 13.199 h 6.04293 V 86.032 c 0,-1.957 0,-1.957 1.93489,-1.957 h 6.04294 v -4.4 h -21.99463 z"
       style="fill:#000000;fill-opacity:1;stroke:#000000;stroke-width:0.9943341"
       inkscape:connector-curvature="0" /><path
       id="_x32_391_2_"
       d="m 316.21221,79.675 v 4.4 h 6.28319 c 1.69364,0 1.69364,0 1.69364,1.957 v 13.199 h 6.04097 V 86.032 c 0,-1.957 0,-1.957 1.9329,-1.957 h 6.04195 v -4.4 h -21.99265 z"
       style="fill:#000000;fill-opacity:1;stroke:#000000;stroke-width:0.9943341"
       inkscape:connector-curvature="0" /><path
       d="m 106.07085,79.675 v 19.559 h 6.28419 v -3.42 c 0,-0.979 0.72471,-1.959 1.69166,-1.959 h 7.97683 c 0.96795,0 1.69168,0.979 1.69168,1.959 v 3.42 h 5.31822 v -5.379 c 0,-0.731 -0.72373,-1.709 -0.72373,-2.688 0,-0.731 1.69166,-2.442 1.69166,-4.397 v -1.713 c 0,-1.713 -2.65861,-5.38 -4.35028,-5.38 l -19.58023,-0.002 0,0 z m 7.97585,4.4 h 7.97683 c 0.96795,0 1.69069,0.979 1.69069,1.957 v 1.71 c 0,0.979 -0.72373,1.713 -1.69069,1.713 h -7.97683 c -0.96695,0 -1.69166,-0.733 -1.69166,-1.713 v -1.71 c 9.9e-4,-0.976 0.72471,-1.957 1.69166,-1.957 z"
       id="path34"
       style="fill:#000000;fill-opacity:1;stroke:#000000;stroke-width:0.9943341"
       inkscape:connector-curvature="0" /><path
       d="m 161.6635,79.675 c -1.69265,0 -4.34928,3.667 -4.34928,5.381 v 14.178 h 6.2822 v -5.379 h 11.35918 v 5.379 h 6.28319 V 85.056 c 0,-1.714 -2.65764,-5.381 -4.59252,-5.381 H 161.6635 z m 3.62557,4.4 h 7.97485 c 0.72275,0 1.69168,0.979 1.69168,1.957 v 3.422 h -11.35918 v -3.422 c 0,-0.976 0.7257,-1.957 1.69265,-1.957 z"
       id="path36"
       style="fill:#000000;fill-opacity:1;stroke:#000000;stroke-width:0.9943341"
       inkscape:connector-curvature="0" /><path
       d="M 191.63398,99.231 V 79.673 h -6.04095 v 19.559 h 6.04095 z"
       id="path38"
       style="fill:#000000;fill-opacity:1;stroke:#000000;stroke-width:0.9943341"
       inkscape:connector-curvature="0" /><path
       id="_x33_177_1_"
       d="m 249.92083,126.021 v -14.18 c 0,-2.688 -2.6586,-5.379 -5.32019,-5.379 h -27.31087 v 19.559 h 6.2822 V 112.82 c 0,-0.979 0.72373,-1.957 1.69068,-1.957 h 3.62556 c 0.72571,0 1.69463,0.979 1.69463,1.957 v 13.199 h 6.2822 V 112.82 c 0,-0.979 0.72275,-1.957 1.6897,-1.957 h 3.62655 c 0.72472,0 1.69563,0.979 1.69563,1.957 v 13.199 h 6.04194 l 0.002,0.002 0,0 z"
       style="fill:#000000;fill-opacity:1;stroke:#000000;stroke-width:0.9943341"
       inkscape:connector-curvature="0" /><path
       id="_x33_181_3_"
       d="m 212.96222,126.021 h -15.95366 c -2.65763,0 -5.31625,-1.713 -5.31625,-4.398 V 106.22 h 21.26794 v 4.646 h -14.25904 c -0.72372,0 -1.69265,0.733 -1.69265,1.711 0,0.979 0.96793,1.712 1.69265,1.712 h 13.29209 v 3.911 h -13.29209 c -0.72372,0 -1.69265,0.979 -1.69265,1.713 0,0.979 0.96793,1.954 1.69265,1.954 h 14.25904 l 0.002,4.154 0,0 z"
       style="fill:#000000;fill-opacity:1;stroke:#000000;stroke-width:0.9943341"
       inkscape:connector-curvature="0" /><path
       id="_x32_391_3_"
       d="m 167.02522,106.462 v 4.398 h 6.2832 c 1.69167,0 1.69167,0 1.69167,1.957 v 13.199 h 6.04194 v -13.199 c 0,-1.957 0,-1.957 1.93687,-1.957 h 6.03997 v -4.398 h -21.99365 z"
       style="fill:#000000;fill-opacity:1;stroke:#000000;stroke-width:0.9943341"
       inkscape:connector-curvature="0" /><path
       id="_x33_187"
       d="m 95.437385,106.565 c -1.692655,0 -5.318219,2.69 -5.318219,4.398 v 2.691 c 0,1.712 3.625564,4.4 5.318219,4.4 h 10.634465 c 0.96695,0 1.9339,0.979 1.9339,1.711 0,0.977 -0.96794,1.954 -1.9339,1.954 H 90.119166 v 4.399 h 17.885594 c 1.69266,0 5.07599,-2.688 5.07599,-4.399 v -2.688 c 0,-1.957 -3.38333,-4.646 -5.07599,-4.646 H 97.370294 c -0.967937,0 -1.932909,-0.733 -1.932909,-1.713 0,-0.978 0.965961,-1.713 1.932909,-1.713 h 15.710456 v -4.397 H 95.437385 v 0.003 z"
       style="fill:#000000;fill-opacity:1;stroke:#000000;stroke-width:0.9943341"
       inkscape:connector-curvature="0" /><path
       id="_x33_187_1_"
       d="m 146.63823,106.565 c -1.69365,0 -5.31921,2.69 -5.31921,4.398 v 2.691 c 0,1.712 3.62556,4.4 5.31921,4.4 h 10.63446 c 0.96695,0 1.93389,0.979 1.93389,1.711 0,0.977 -0.96793,1.954 -1.93389,1.954 h -15.95367 v 4.399 h 17.88658 c 1.69266,0 5.07599,-2.688 5.07599,-4.399 v -2.688 c 0,-1.957 -3.38333,-4.646 -5.07599,-4.646 h -10.63545 c -0.96695,0 -1.93291,-0.733 -1.93291,-1.713 0,-0.978 0.96694,-1.713 1.93291,-1.713 h 15.71144 v -4.397 h -17.64336 v 0.003 l 0,0 z"
       style="fill:#000000;fill-opacity:1;stroke:#000000;stroke-width:0.9943341"
       inkscape:connector-curvature="0" /><path
       d="m 115.01465,106.565 v 8.804 c 0,1.71 2.65762,4.399 4.35028,4.399 h 4.3483 v 6.354 h 6.28517 v -6.354 h 4.35028 c 1.69068,0 4.35028,-2.689 4.35028,-4.399 v -8.804 h -6.04294 v 7.092 c 0,0.732 -0.96694,1.712 -1.93389,1.712 h -7.73362 c -0.96794,0 -1.93389,-0.979 -1.93389,-1.712 v -7.092 h -6.03997 z"
       id="path45"
       style="fill:#000000;fill-opacity:1;stroke:#000000;stroke-width:0.9943341"
       inkscape:connector-curvature="0" /></g></svg>