<?xml version="1.0" encoding="UTF-8" standalone="no"?>
<!-- Created with Inkscape (http://www.inkscape.org/) -->

<svg
   xmlns:dc="http://purl.org/dc/elements/1.1/"
   xmlns:cc="http://creativecommons.org/ns#"
   xmlns:rdf="http://www.w3.org/1999/02/22-rdf-syntax-ns#"
   xmlns:svg="http://www.w3.org/2000/svg"
   xmlns="http://www.w3.org/2000/svg"
   xmlns:sodipodi="http://sodipodi.sourceforge.net/DTD/sodipodi-0.dtd"
   xmlns:inkscape="http://www.inkscape.org/namespaces/inkscape"
   width="202.67999mm"
   height="47.650398mm"
   viewBox="0 0 202.67999 47.650398"
   version="1.1"
   id="svg8"
   inkscape:version="0.48.5 r10040"
   sodipodi:docname="system.svg">
  <defs
     id="defs2" />
  <sodipodi:namedview
     id="base"
     pagecolor="#ffffff"
     bordercolor="#666666"
     borderopacity="1.0"
     inkscape:pageopacity="0.0"
     inkscape:pageshadow="2"
     inkscape:zoom="0.98994949"
     inkscape:cx="317.07061"
     inkscape:cy="77.169262"
     inkscape:document-units="mm"
     inkscape:current-layer="text4518"
     showgrid="false"
     fit-margin-top="0"
     fit-margin-left="0"
     fit-margin-right="0"
     fit-margin-bottom="0"
     inkscape:window-width="1184"
     inkscape:window-height="560"
     inkscape:window-x="0"
     inkscape:window-y="36"
     inkscape:window-maximized="1" />
  <metadata
     id="metadata5">
    <rdf:RDF>
      <cc:Work
         rdf:about="">
        <dc:format>image/svg+xml</dc:format>
        <dc:type
           rdf:resource="http://purl.org/dc/dcmitype/StillImage" />
        <dc:title />
      </cc:Work>
    </rdf:RDF>
  </metadata>
  <g
     inkscape:label="Layer 1"
     inkscape:groupmode="layer"
     id="layer1"
     transform="translate(-4.6338494,-91.49789)">
    <g
       aria-label="Retropie"
       style="font-size:10.58333302px;font-style:normal;font-variant:normal;font-weight:normal;font-stretch:normal;line-height:6.61458302px;letter-spacing:0px;word-spacing:0px;fill:#ffffff;fill-opacity:1;stroke:none;font-family:ITC Avant Garde Gothic Std;-inkscape-font-specification:ITC Avant Garde Gothic Std"
       id="text4514"
       transform="translate(-56.447323,0)">
      <path
         inkscape:connector-curvature="0"
         d="m 174.31352,93.225873 c -0.23386,0.0072 -0.48583,0.09222 -0.77146,0.314262 -0.69966,-0.265768 -1.3782,-0.358112 -1.98513,0.182969 -0.93657,-0.119709 -1.24139,0.127347 -1.47209,0.415643 -0.20569,-0.0042 -1.53924,-0.208234 -2.15069,0.69013 -1.53692,-0.179088 -2.02249,0.890217 -1.47223,1.887354 -0.31387,0.478522 -0.63911,0.951252 0.0949,1.863492 -0.25972,0.50805 -0.0987,1.05925 0.51297,1.726277 -0.16142,0.71425 0.15587,1.21816 0.725,1.61089 -0.10643,0.97735 0.91007,1.54573 1.21367,1.74817 0.11658,0.56953 0.35943,1.10692 1.52063,1.40407 0.19147,0.84872 0.88933,0.99529 1.56508,1.17342 -2.23347,1.2785 -4.14881,2.96073 -4.13582,7.08808 l -0.32712,0.57474 c -2.56111,1.53395 -4.86515,6.4639 -1.2622,10.47109 0.23535,1.25424 0.63,2.15515 0.98148,3.15222 0.52564,4.01776 3.95605,5.89901 4.86082,6.12156 1.32586,0.9946 2.73792,1.93834 4.6488,2.59938 1.80134,1.82963 3.75281,2.52695 5.71506,2.52581 0.0288,0 0.058,2.4e-4 0.0868,0 1.96213,9.1e-4 3.91365,-0.69611 5.71506,-2.52581 1.91075,-0.66104 3.32294,-1.60478 4.6488,-2.59938 0.90477,-0.22249 4.33512,-2.1038 4.86082,-6.12156 0.35142,-0.99707 0.74607,-1.89798 0.98148,-3.15222 3.60296,-4.00719 1.2989,-8.93714 -1.26214,-10.47102 l -0.32711,-0.57475 c 0.0129,-4.12735 -1.90235,-5.80959 -4.13583,-7.08807 0.67569,-0.17807 1.37355,-0.32471 1.56509,-1.17343 1.16113,-0.29721 1.40412,-0.8346 1.52063,-1.40406 0.30352,-0.20245 1.3201,-0.77077 1.21367,-1.74817 0.56913,-0.3928 0.88635,-0.89671 0.72499,-1.6109 0.61165,-0.667027 0.77256,-1.218227 0.51297,-1.726277 0.73392,-0.91224 0.40874,-1.38497 0.0949,-1.863487 0.55026,-0.997136 0.0647,-2.066443 -1.47216,-1.887355 -0.61151,-0.898365 -1.94513,-0.694331 -2.15069,-0.69013 -0.23076,-0.288297 -0.53559,-0.535353 -1.47216,-0.415644 -0.607,-0.54108 -1.28553,-0.448736 -1.98513,-0.182969 -0.83098,-0.645771 -1.38117,-0.128111 -2.00936,0.06759 -1.00643,-0.323808 -1.23649,0.11971 -1.73065,0.300325 -1.09703,-0.228346 -1.43048,0.268822 -1.95683,0.793547 l -0.61191,-0.01196 c -1.65497,0.960541 -2.47723,2.916443 -2.76867,3.921913 -0.29164,-1.00566 -1.11196,-2.961562 -2.76661,-3.921914 l -0.61191,0.01196 c -0.52641,-0.524724 -0.85993,-1.021892 -1.95682,-0.793546 -0.49424,-0.180615 -0.72429,-0.624133 -1.73065,-0.300325 -0.41268,-0.128492 -0.79188,-0.395532 -1.23836,-0.381913 z"
         id="path2"
         style="fill:#000000" />
      <path
         inkscape:connector-curvature="0"
         style="fill:#75a928"
         d="m 171.01889,97.451673 c 4.39089,2.22943 6.94347,4.032897 8.34189,5.568887 -0.71614,2.82678 -4.45221,2.95584 -5.81826,2.87654 0.27968,-0.12823 0.51303,-0.28181 0.59588,-0.51779 -0.34282,-0.23992 -1.55824,-0.0253 -2.40679,-0.49475 0.32595,-0.0665 0.4784,-0.13129 0.6309,-0.36816 -0.80164,-0.25183 -1.66525,-0.46885 -2.17305,-0.88596 0.27406,0.004 0.5299,0.0604 0.88791,-0.18411 -0.71808,-0.38109 -1.48437,-0.68307 -2.07967,-1.26564 0.37125,-0.009 0.77152,-0.004 0.88791,-0.13811 -0.65721,-0.401 -1.21173,-0.84694 -1.67075,-1.33469 0.51957,0.0618 0.73902,0.009 0.86459,-0.0805 -0.49682,-0.50118 -1.1256,-0.924267 -1.42538,-1.541847 0.38573,0.13097 0.7387,0.18106 0.99305,-0.0115 -0.16879,-0.37511 -0.89217,-0.59633 -1.30853,-1.4728 0.40608,0.0388 0.83679,0.0872 0.92293,0 -0.18883,-0.75657 -0.51226,-1.181823 -0.82949,-1.622351 0.86917,-0.01272 2.18604,0.0034 2.12633,-0.06905 l -0.5374,-0.540764 c 0.84901,-0.225163 1.71773,0.03615 2.34837,0.23013 0.28318,-0.220073 -0.005,-0.498315 -0.35051,-0.782411 0.72151,0.09489 1.37348,0.258194 1.96278,0.48323 0.3149,-0.279959 -0.20441,-0.559982 -0.45566,-0.839941 1.11474,0.208298 1.587,0.500923 2.05628,0.793929 0.3405,-0.321454 0.0195,-0.594604 -0.21034,-0.874436 0.84048,0.306562 1.27338,0.702285 1.72916,1.093045 0.15458,-0.205372 0.39258,-0.355884 0.10514,-0.851461 0.59672,0.338764 1.04617,0.737923 1.37865,1.185133 0.36919,-0.231527 0.21998,-0.548144 0.22204,-0.839942 0.62012,0.49685 1.01373,1.025522 1.49549,1.541845 0.097,-0.06956 0.18198,-0.305607 0.25707,-0.678864 1.47953,1.413608 3.57006,4.974105 0.5374,6.385855 -2.57966,-2.09686 -5.66194,-3.620437 -9.07794,-4.763497 z"
         id="path4" />
      <path
         inkscape:connector-curvature="0"
         style="fill:#75a928"
         d="m 194.31734,97.451673 c -4.39095,2.22943 -6.94346,4.032897 -8.34195,5.568887 0.7162,2.82678 4.45221,2.95584 5.81833,2.87654 -0.27975,-0.12823 -0.51311,-0.28181 -0.59589,-0.51779 0.34282,-0.23992 1.55824,-0.0253 2.40673,-0.49475 -0.32596,-0.0665 -0.4784,-0.13129 -0.63091,-0.36816 0.8017,-0.25183 1.66525,-0.46885 2.17312,-0.88596 -0.27406,0.004 -0.52997,0.0604 -0.88791,-0.18411 0.71802,-0.38109 1.48431,-0.68307 2.07967,-1.26564 -0.37125,-0.009 -0.77152,-0.004 -0.88791,-0.13811 0.65722,-0.401 1.21173,-0.84694 1.67075,-1.33469 -0.51956,0.0618 -0.73902,0.009 -0.86458,-0.0805 0.49681,-0.50118 1.12552,-0.924267 1.42537,-1.541847 -0.3858,0.13097 -0.73876,0.18106 -0.99305,-0.0115 0.16879,-0.37511 0.89211,-0.59633 1.30853,-1.4728 -0.40615,0.0388 -0.83685,0.0872 -0.92299,0 0.18889,-0.75657 0.51232,-1.181823 0.82955,-1.622351 -0.86917,-0.01272 -2.18604,0.0034 -2.12639,-0.06905 l 0.53739,-0.540764 c -0.849,-0.225163 -1.71765,0.03615 -2.3483,0.23013 -0.28318,-0.220073 0.005,-0.498315 0.35051,-0.782411 -0.72151,0.09489 -1.37348,0.258194 -1.96284,0.48323 -0.31484,-0.279959 0.20447,-0.559982 0.45565,-0.839941 -1.11467,0.208298 -1.58693,0.500923 -2.05621,0.793929 -0.34056,-0.321454 -0.0195,-0.594604 0.21028,-0.874436 -0.84042,0.306562 -1.27332,0.702285 -1.7291,1.093045 -0.15458,-0.205372 -0.39258,-0.355884 -0.10521,-0.851461 -0.59665,0.338764 -1.0461,0.737923 -1.37858,1.185133 -0.36925,-0.231527 -0.21998,-0.548144 -0.22204,-0.839942 -0.62018,0.49685 -1.01373,1.025522 -1.49549,1.541845 -0.0971,-0.06956 -0.18198,-0.305607 -0.25707,-0.678864 -1.47959,1.413608 -3.57012,4.974105 -0.5374,6.385855 2.57959,-2.09686 5.66195,-3.620437 9.07794,-4.763497 z"
         id="path6" />
      <path
         inkscape:connector-curvature="0"
         style="fill:#bc1142"
         d="m 187.98578,126.23708 c 0,2.63788 -2.35483,4.77643 -5.25967,4.77643 -2.90483,0 -5.2596,-2.13855 -5.2596,-4.77643 0,-2.63794 2.35477,-4.77643 5.2596,-4.77643 2.90484,0 5.25967,2.13849 5.25967,4.77643 z"
         id="path8" />
      <path
         inkscape:connector-curvature="0"
         style="fill:#bc1142"
         d="m 179.68228,112.59238 c 2.17932,1.40617 2.57216,4.59347 0.87744,7.11908 -1.69472,2.52568 -4.83517,3.43314 -7.01449,2.02705 v 0 c -2.17939,-1.40617 -2.57222,-4.59346 -0.87751,-7.11907 1.69472,-2.52569 4.83524,-3.43315 7.01456,-2.02706 z"
         id="path10" />
      <path
         inkscape:connector-curvature="0"
         style="fill:#bc1142"
         d="m 185.56497,112.33782 c -2.17932,1.40616 -2.57216,4.59346 -0.87744,7.11907 1.69472,2.52568 4.83516,3.43315 7.01448,2.02705 v 0 c 2.17939,-1.40616 2.57223,-4.59346 0.87751,-7.11908 -1.69472,-2.52567 -4.83523,-3.43313 -7.01455,-2.02704 z"
         id="path12" />
      <path
         inkscape:connector-curvature="0"
         style="fill:#bc1142"
         d="m 168.79058,114.8915 c 2.35316,-0.62095 0.79428,9.58678 -1.12016,8.7492 -2.10578,-1.66825 -2.78412,-6.55357 1.12016,-8.7492 z"
         id="path14" />
      <path
         inkscape:connector-curvature="0"
         style="fill:#bc1142"
         d="m 195.98156,114.76422 c -2.35316,-0.62095 -0.79434,9.58678 1.1201,8.74919 2.10584,-1.66823 2.78412,-6.55355 -1.1201,-8.74919 z"
         id="path16" />
      <path
         inkscape:connector-curvature="0"
         style="fill:#bc1142"
         d="m 187.98733,107.16319 c 4.06054,-0.67524 7.43906,1.70062 7.30309,6.03691 -0.13357,1.66238 -8.7989,-5.78941 -7.30309,-6.03691 z"
         id="path18" />
      <path
         inkscape:connector-curvature="0"
         style="fill:#bc1142"
         d="m 176.7682,107.0359 c -4.06054,-0.67523 -7.43905,1.70063 -7.30309,6.03691 0.13358,1.66239 8.7989,-5.7894 7.30309,-6.03691 z"
         id="path20" />
      <path
         inkscape:connector-curvature="0"
         style="fill:#bc1142"
         d="m 182.60094,106.02419 c -2.42353,-0.0622 -4.74941,1.7714 -4.75503,2.83486 -0.007,1.29217 1.91611,2.61515 4.77157,2.64875 2.91595,0.0206 4.77656,-1.05906 4.78599,-2.39254 0.0107,-1.51085 -2.65203,-3.11443 -4.80253,-3.09107 z"
         id="path22" />
      <path
         inkscape:connector-curvature="0"
         style="fill:#bc1142"
         d="m 182.74893,132.52207 c 2.11295,-0.0909 4.94812,0.67021 4.95368,1.67989 0.0351,0.98039 -2.57126,3.1955 -5.09391,3.15267 -2.61249,0.11093 -5.17418,-2.10755 -5.14064,-2.87654 -0.0391,-1.12747 3.18109,-2.00776 5.28087,-1.95602 z"
         id="path24" />
      <path
         inkscape:connector-curvature="0"
         style="fill:#bc1142"
         d="m 174.9445,126.53893 c 1.50434,1.7849 2.19011,4.9207 0.93463,5.8451 -1.1877,0.70566 -4.07198,0.415 -6.12199,-2.48533 -1.38266,-2.43372 -1.20443,-4.91033 -0.23368,-5.63795 1.45161,-0.87093 3.69459,0.30536 5.42104,2.27818 z"
         id="path26" />
      <path
         inkscape:connector-curvature="0"
         style="fill:#bc1142"
         d="m 190.25234,125.97303 c -1.62764,1.87755 -2.53396,5.30198 -1.34659,6.40508 1.13528,0.85687 4.18293,0.7371 6.43411,-2.33921 1.63468,-2.06612 1.08695,-5.51658 0.15322,-6.43257 -1.38699,-1.05659 -3.37826,0.29561 -5.24074,2.3667 z"
         id="path28" />
      <g
         style="stroke:#000000;stroke-width:0.80000001;stroke-linecap:round;stroke-linejoin:round;stroke-miterlimit:4;font-family:sans-serif"
         id="text4518">
        <path
           d="m 82.209252,116.13238 c 0.746421,0.25265 1.46989,0.79238 2.17041,1.6192 0.711968,0.82683 1.423954,1.96371 2.135959,3.41064 l 3.531223,7.028 -3.737928,0 -3.290067,-6.59736 c -0.849806,-1.72254 -1.676628,-2.86516 -2.480469,-3.42787 -0.792385,-0.56269 -1.877589,-0.84404 -3.255615,-0.84405 l -3.789605,0 0,10.86928 -3.479547,0 0,-25.71764 7.854818,0 c 2.939801,2e-5 5.133176,0.6144 6.580133,1.84312 1.446921,1.22878 2.17039,3.08339 2.17041,5.56383 -2e-5,1.61921 -0.37898,2.9628 -1.136881,4.03076 -0.746456,1.068 -1.837402,1.80869 -3.272841,2.22209 m -8.716092,-10.80037 0,9.1295 4.375271,0 c 1.676601,10e-6 2.939801,-0.38469 3.789605,-1.15411 0.861258,-0.78087 1.291895,-1.92349 1.291911,-3.42787 -1.6e-5,-1.50434 -0.430653,-2.63547 -1.291911,-3.39342 -0.849804,-0.76938 -2.113004,-1.15408 -3.789605,-1.1541 l -4.375271,0"
           style="font-size:35.27777863px;font-variant:normal;font-stretch:normal;fill:#c83737;stroke:#000000;font-family:Berlin Sans FB Demi;-inkscape-font-specification:Berlin Sans FB Demi"
           id="path3195" />
        <path
           d="m 109.32215,117.75158 0,1.55029 -14.572751,0 c 0.137799,2.1819 0.792366,3.84703 1.963705,4.99539 1.182807,1.13688 2.824968,1.70532 4.926486,1.70532 1.21725,0 2.39433,-0.14928 3.53122,-0.44786 1.14835,-0.29857 2.28523,-0.74644 3.41065,-1.34359 l 0,2.99723 c -1.1369,0.48232 -2.30249,0.84979 -3.49677,1.10243 -1.19432,0.25264 -2.40584,0.37896 -3.63458,0.37896 -3.077628,0 -5.517901,-0.89572 -7.320828,-2.68717 -1.791453,-1.79145 -2.687177,-4.21449 -2.687175,-7.26915 -2e-6,-3.15799 0.849788,-5.66143 2.549371,-7.51031 1.711058,-1.86033 4.013528,-2.79051 6.907412,-2.79053 2.5953,2e-5 4.64513,0.83833 6.1495,2.51492 1.51582,1.66515 2.27374,3.93317 2.27376,6.80407 m -3.16948,-0.93018 c -0.023,-1.73402 -0.51104,-3.1178 -1.46417,-4.15134 -0.94167,-1.03351 -2.19339,-1.55028 -3.75515,-1.55029 -1.768496,1e-5 -3.186726,0.49955 -4.254697,1.49861 -1.056502,0.9991 -1.665135,2.40584 -1.825901,4.22025 l 11.299918,-0.0172"
           style="font-size:35.27777863px;font-variant:normal;font-stretch:normal;fill:#c83737;stroke:#000000;font-family:Berlin Sans FB Demi;-inkscape-font-specification:Berlin Sans FB Demi"
           id="path3197" />
        <path
           d="m 117.65928,103.41998 0,5.4777 6.52846,0 0,2.46324 -6.52846,0 0,10.47309 c 0,1.57327 0.21244,2.58383 0.63735,3.03169 0.43637,0.44786 1.31487,0.6718 2.63549,0.67179 l 3.25562,0 0,2.65273 -3.25562,0 c -2.44602,0 -4.13412,-0.45361 -5.06429,-1.36082 -0.93018,-0.91869 -1.39526,-2.58381 -1.39526,-4.99539 l 0,-10.47309 -2.32544,0 0,-2.46324 2.32544,0 0,-5.4777 3.18671,0"
           style="font-size:35.27777863px;font-variant:normal;font-stretch:normal;fill:#c83737;stroke:#000000;font-family:Berlin Sans FB Demi;-inkscape-font-specification:Berlin Sans FB Demi"
           id="path3199" />
        <path
           d="m 139.55287,111.86046 c -0.35601,-0.20669 -0.74645,-0.35597 -1.17134,-0.44786 -0.41342,-0.10334 -0.87277,-0.15501 -1.37803,-0.15503 -1.79146,2e-5 -3.1695,0.58568 -4.13412,1.757 -0.95315,1.15986 -1.42972,2.83073 -1.42971,5.01261 l 0,10.16304 -3.18672,0 0,-19.29254 3.18672,0 0,2.99723 c 0.66604,-1.17131 1.53306,-2.03833 2.60104,-2.60104 1.06797,-0.57417 2.36563,-0.86126 3.89296,-0.86128 0.21818,2e-5 0.45934,0.0172 0.72347,0.0517 0.26411,0.023 0.55695,0.0632 0.8785,0.12058 l 0.0172,3.25561"
           style="font-size:35.27777863px;font-variant:normal;font-stretch:normal;fill:#c83737;stroke:#000000;font-family:Berlin Sans FB Demi;-inkscape-font-specification:Berlin Sans FB Demi"
           id="path3201" />
        <path
           d="m 149.62977,111.11977 c -1.69959,1e-5 -3.04317,0.66607 -4.03076,1.99815 -0.9876,1.32064 -1.48139,3.13505 -1.48139,5.44325 0,2.30823 0.48805,4.12838 1.46417,5.46048 0.98758,1.32062 2.33691,1.98093 4.04798,1.98093 1.68809,0 3.02593,-0.66605 4.01354,-1.99816 0.98758,-1.33209 1.48137,-3.14651 1.48139,-5.44325 -2e-5,-2.28523 -0.49381,-4.0939 -1.48139,-5.42602 -0.98761,-1.34357 -2.32545,-2.01537 -4.01354,-2.01538 m 0,-2.68718 c 2.75607,2e-5 4.92073,0.89575 6.49401,2.68718 1.57324,1.79146 2.35987,4.27193 2.35989,7.4414 -2e-5,3.15801 -0.78665,5.63848 -2.35989,7.44141 -1.57328,1.79145 -3.73794,2.68717 -6.49401,2.68717 -2.76756,0 -4.93797,-0.89572 -6.51123,-2.68717 -1.56178,-1.80293 -2.34266,-4.2834 -2.34266,-7.44141 0,-3.16947 0.78088,-5.64994 2.34266,-7.4414 1.57326,-1.79143 3.74367,-2.68716 6.51123,-2.68718"
           style="font-size:35.27777863px;font-variant:normal;font-stretch:normal;fill:#c83737;stroke:#000000;font-family:Berlin Sans FB Demi;-inkscape-font-specification:Berlin Sans FB Demi"
           id="path3203" />
        <path
           d="m 212.26161,105.33201 0,9.66349 4.37527,0 c 1.61918,10e-6 2.8709,-0.41914 3.75515,-1.25746 0.88423,-0.83829 1.32635,-2.03259 1.32637,-3.5829 -2e-5,-1.53879 -0.44214,-2.72735 -1.32637,-3.56567 -0.88425,-0.83829 -2.13597,-1.25744 -3.75515,-1.25746 l -4.37527,0 m -3.47955,-2.85943 7.85482,0 c 2.88238,2e-5 5.05853,0.65459 6.52846,1.9637 1.48137,1.29768 2.22206,3.20396 2.22208,5.71886 -2e-5,2.5379 -0.74071,4.45567 -2.22208,5.75331 -1.46993,1.29766 -3.64608,1.94649 -6.52846,1.94648 l -4.37527,0 0,10.33529 -3.47955,0 0,-25.71764"
           style="font-size:35.27777863px;font-variant:normal;font-stretch:normal;fill:#c83737;stroke:#000000;font-family:Berlin Sans FB Demi;-inkscape-font-specification:Berlin Sans FB Demi"
           id="path3205" />
        <path
           d="m 229.17703,108.89768 3.16949,0 0,19.29254 -3.16949,0 0,-19.29254 m 0,-7.51031 3.16949,0 0,4.01354 -3.16949,0 0,-4.01354"
           style="font-size:35.27777863px;font-variant:normal;font-stretch:normal;fill:#c83737;stroke:#000000;font-family:Berlin Sans FB Demi;-inkscape-font-specification:Berlin Sans FB Demi"
           id="path3207" />
        <path
           d="m 255.4631,117.75158 0,1.55029 -14.57276,0 c 0.1378,2.1819 0.79237,3.84703 1.96371,4.99539 1.18281,1.13688 2.82497,1.70532 4.92649,1.70532 1.21725,0 2.39432,-0.14928 3.53122,-0.44786 1.14835,-0.29857 2.28523,-0.74644 3.41064,-1.34359 l 0,2.99723 c -1.1369,0.48232 -2.30249,0.84979 -3.49677,1.10243 -1.19431,0.25264 -2.40584,0.37896 -3.63457,0.37896 -3.07763,0 -5.51791,-0.89572 -7.32083,-2.68717 -1.79146,-1.79145 -2.68718,-4.21449 -2.68718,-7.26915 0,-3.15799 0.84979,-5.66143 2.54937,-7.51031 1.71106,-1.86033 4.01353,-2.79051 6.90742,-2.79053 2.59529,2e-5 4.64512,0.83833 6.1495,2.51492 1.51582,1.66515 2.27374,3.93317 2.27376,6.80407 m -3.16949,-0.93018 c -0.023,-1.73402 -0.51104,-3.1178 -1.46416,-4.15134 -0.94168,-1.03351 -2.1934,-1.55028 -3.75516,-1.55029 -1.76849,1e-5 -3.18672,0.49955 -4.25469,1.49861 -1.0565,0.9991 -1.66514,2.40584 -1.8259,4.22025 l 11.29991,-0.0172"
           style="font-size:35.27777863px;font-variant:normal;font-stretch:normal;fill:#c83737;stroke:#000000;font-family:Berlin Sans FB Demi;-inkscape-font-specification:Berlin Sans FB Demi"
           id="path3209" />
      </g>
    </g>
  </g>
</svg>
