<?xml version="1.0" encoding="UTF-8" standalone="no"?>
<!-- Created with Inkscape (http://www.inkscape.org/) -->

<svg
   xmlns:dc="http://purl.org/dc/elements/1.1/"
   xmlns:cc="http://creativecommons.org/ns#"
   xmlns:rdf="http://www.w3.org/1999/02/22-rdf-syntax-ns#"
   xmlns:svg="http://www.w3.org/2000/svg"
   xmlns="http://www.w3.org/2000/svg"
   xmlns:sodipodi="http://sodipodi.sourceforge.net/DTD/sodipodi-0.dtd"
   xmlns:inkscape="http://www.inkscape.org/namespaces/inkscape"
   width="202.67999mm"
   height="47.650398mm"
   viewBox="0 0 202.67999 47.650398"
   version="1.1"
   id="svg8"
   inkscape:version="0.92.0 r15299"
   sodipodi:docname="system.svg">
  <defs
     id="defs2" />
  <sodipodi:namedview
     id="base"
     pagecolor="#ffffff"
     bordercolor="#666666"
     borderopacity="1.0"
     inkscape:pageopacity="0.0"
     inkscape:pageshadow="2"
     inkscape:zoom="0.98994949"
     inkscape:cx="439.01593"
     inkscape:cy="77.169262"
     inkscape:document-units="mm"
     inkscape:current-layer="text4514"
     showgrid="false"
     fit-margin-top="0"
     fit-margin-left="0"
     fit-margin-right="0"
     fit-margin-bottom="0"
     inkscape:window-width="1366"
     inkscape:window-height="705"
     inkscape:window-x="-8"
     inkscape:window-y="-8"
     inkscape:window-maximized="1" />
  <metadata
     id="metadata5">
    <rdf:RDF>
      <cc:Work
         rdf:about="">
        <dc:format>image/svg+xml</dc:format>
        <dc:type
           rdf:resource="http://purl.org/dc/dcmitype/StillImage" />
        <dc:title />
      </cc:Work>
    </rdf:RDF>
  </metadata>
  <g
     inkscape:label="Layer 1"
     inkscape:groupmode="layer"
     id="layer1"
     transform="translate(-4.6338494,-91.49789)">
    <g
       aria-label="Retropie"
       style="font-style:normal;font-variant:normal;font-weight:normal;font-stretch:normal;font-size:10.58333302px;line-height:6.61458302px;font-family:'ITC Avant Garde Gothic Std';-inkscape-font-specification:'ITC Avant Garde Gothic Std';letter-spacing:0px;word-spacing:0px;fill:#ffffff;fill-opacity:1;stroke:none;stroke-width:0.26458332"
       id="text4514">
      <path
         inkscape:connector-curvature="0"
         d="m 27.778554,92.655698 c -0.233868,0.0072 -0.48583,0.09222 -0.771461,0.314262 -0.699664,-0.265768 -1.378199,-0.358112 -1.98513,0.182969 -0.93657,-0.119709 -1.241394,0.127347 -1.472095,0.415643 -0.205693,-0.0042 -1.539238,-0.208234 -2.150693,0.69013 -1.536912,-0.179088 -2.022484,0.890217 -1.472225,1.887354 -0.31387,0.478522 -0.639114,0.951252 0.09493,1.863492 -0.259717,0.50805 -0.09868,1.05925 0.512972,1.72628 -0.161427,0.714252 0.155869,1.218162 0.724997,1.610892 -0.106433,0.97735 0.910075,1.54573 1.21367,1.74817 0.116579,0.56953 0.359429,1.10692 1.520627,1.40407 0.191475,0.84872 0.889331,0.99529 1.565086,1.17342 -2.233474,1.2785 -4.148814,2.96073 -4.135825,7.08808 l -0.327117,0.57474 c -2.561109,1.53395 -4.865151,6.4639 -1.262202,10.47109 0.235354,1.25424 0.630003,2.15515 0.981483,3.15222 0.525637,4.01776 3.956045,5.89901 4.860821,6.12156 1.325855,0.9946 2.737915,1.93834 4.648795,2.59938 1.801346,1.82963 3.752808,2.52695 5.715063,2.52581 0.02876,0 0.05803,2.4e-4 0.08685,0 1.962125,9.1e-4 3.913652,-0.69611 5.715063,-2.52581 1.910751,-0.66104 3.322941,-1.60478 4.648794,-2.59938 0.904776,-0.22249 4.335122,-2.1038 4.860823,-6.12156 0.351418,-0.99707 0.746067,-1.89798 0.981482,-3.15222 3.602953,-4.00719 1.298902,-8.93714 -1.262138,-10.47102 l -0.327116,-0.57475 c 0.01293,-4.12735 -1.902353,-5.80959 -4.135824,-7.08807 0.675689,-0.17807 1.373543,-0.32471 1.565085,-1.17343 1.161132,-0.29721 1.404116,-0.8346 1.520629,-1.40406 0.303524,-0.20245 1.320098,-0.77077 1.213668,-1.74817 0.56913,-0.3928 0.886353,-0.89671 0.724994,-1.610902 0.611653,-0.66703 0.772559,-1.21823 0.512974,-1.72628 0.733916,-0.91224 0.408736,-1.38497 0.09493,-1.863487 0.550258,-0.997136 0.06466,-2.066443 -1.472165,-1.887355 -0.611512,-0.898365 -1.945126,-0.694331 -2.15069,-0.69013 -0.230764,-0.288297 -0.535588,-0.535353 -1.472158,-0.415644 -0.606997,-0.54108 -1.285529,-0.448736 -1.98513,-0.182969 -0.830978,-0.645771 -1.381172,-0.128111 -2.009366,0.06759 -1.006427,-0.323808 -1.236483,0.11971 -1.730647,0.300325 -1.097028,-0.228346 -1.43048,0.268822 -1.956828,0.793547 l -0.611908,-0.01196 c -1.654976,0.960541 -2.477229,2.916443 -2.768676,3.921913 -0.29164,-1.00566 -1.111955,-2.961562 -2.766607,-3.921914 l -0.611908,0.01196 C 32.177968,93.60676 31.844452,93.109592 30.747555,93.337938 30.253323,93.157323 30.023268,92.713805 29.016906,93.037613 28.604228,92.909121 28.225025,92.642081 27.77855,92.6557 Z"
         id="path2"
         style="fill:#000000;stroke-width:0.01696774" />
      <path
         inkscape:connector-curvature="0"
         style="fill:#75a928;stroke-width:0.01696774"
         d="m 24.483917,96.881498 c 4.390888,2.22943 6.943468,4.032902 8.341893,5.568892 -0.716144,2.82678 -4.452215,2.95584 -5.818265,2.87654 0.279686,-0.12823 0.513036,-0.28181 0.595882,-0.51779 -0.342821,-0.23992 -1.558236,-0.0253 -2.40679,-0.49475 0.325954,-0.0665 0.478398,-0.13129 0.630906,-0.36816 -0.801639,-0.25183 -1.66525,-0.46885 -2.173052,-0.88596 0.274063,0.004 0.529902,0.0604 0.88791,-0.18411 -0.718083,-0.38109 -1.484374,-0.68307 -2.079674,-1.26564 0.371255,-0.009 0.771526,-0.004 0.88791,-0.13811 -0.657208,-0.401 -1.211731,-0.84694 -1.670743,-1.33469 0.519562,0.0618 0.73902,0.009 0.864581,-0.0805 -0.496816,-0.501182 -1.125591,-0.924272 -1.425373,-1.541852 0.38573,0.13097 0.738697,0.18106 0.99305,-0.0115 -0.168794,-0.37511 -0.892175,-0.59633 -1.308536,-1.4728 0.406086,0.0388 0.836793,0.0872 0.922935,0 -0.188827,-0.75657 -0.512261,-1.181823 -0.829492,-1.622351 0.86917,-0.01272 2.186042,0.0034 2.126331,-0.06905 l -0.537399,-0.540764 c 0.849007,-0.225163 1.717725,0.03615 2.348373,0.23013 0.283175,-0.220073 -0.0049,-0.498315 -0.350511,-0.782411 0.721507,0.09489 1.373481,0.258194 1.962772,0.48323 0.314904,-0.279959 -0.204401,-0.559982 -0.455652,-0.839941 1.114734,0.208298 1.586993,0.500923 2.05628,0.793929 0.340495,-0.321454 0.01951,-0.594604 -0.210346,-0.874436 0.840478,0.306562 1.273382,0.702285 1.729163,1.093045 0.154576,-0.205372 0.39258,-0.355884 0.10514,-0.851461 0.596722,0.338764 1.046169,0.737923 1.378651,1.185133 0.369187,-0.231527 0.219975,-0.548144 0.222042,-0.839942 0.620116,0.49685 1.01373,1.025522 1.495488,1.541845 0.097,-0.06956 0.181976,-0.305607 0.257068,-0.678864 1.479526,1.413608 3.570056,4.97411 0.537398,6.38586 -2.579655,-2.096862 -5.661942,-3.620442 -9.07794,-4.763502 z"
         id="path4" />
      <path
         inkscape:connector-curvature="0"
         style="fill:#75a928;stroke-width:0.01696774"
         d="m 47.782371,96.881498 c -4.390951,2.22943 -6.943466,4.032902 -8.341956,5.568892 0.716208,2.82678 4.452213,2.95584 5.81833,2.87654 -0.27975,-0.12823 -0.513103,-0.28181 -0.595884,-0.51779 0.342823,-0.23992 1.558237,-0.0253 2.406727,-0.49475 -0.325955,-0.0665 -0.478398,-0.13129 -0.630908,-0.36816 0.801703,-0.25183 1.665252,-0.46885 2.173118,-0.88596 -0.274063,0.004 -0.529968,0.0604 -0.887909,-0.18411 0.718016,-0.38109 1.484308,-0.68307 2.079672,-1.26564 -0.371254,-0.009 -0.771524,-0.004 -0.88791,-0.13811 0.657215,-0.401 1.211731,-0.84694 1.670749,-1.33469 -0.519564,0.0618 -0.739023,0.009 -0.864581,-0.0805 0.496811,-0.501182 1.125524,-0.924272 1.425366,-1.541852 -0.385793,0.13097 -0.738759,0.18106 -0.993047,-0.0115 0.168789,-0.37511 0.892111,-0.59633 1.308532,-1.4728 -0.406148,0.0388 -0.836853,0.0872 -0.922994,0 0.188889,-0.75657 0.512323,-1.181823 0.829555,-1.622351 -0.86917,-0.01272 -2.186042,0.0034 -2.126396,-0.06905 l 0.537397,-0.540764 c -0.849005,-0.225163 -1.717657,0.03615 -2.348306,0.23013 -0.283174,-0.220073 0.0049,-0.498315 0.35051,-0.782411 -0.721506,0.09489 -1.37348,0.258194 -1.962835,0.48323 -0.314839,-0.279959 0.204465,-0.559982 0.45565,-0.839941 -1.11467,0.208298 -1.586928,0.500923 -2.056214,0.793929 -0.34056,-0.321454 -0.01952,-0.594604 0.21028,-0.874436 -0.840413,0.306562 -1.273317,0.702285 -1.729098,1.093045 -0.154576,-0.205372 -0.39258,-0.355884 -0.105205,-0.851461 -0.596658,0.338764 -1.046104,0.737923 -1.378588,1.185133 -0.369251,-0.231527 -0.219973,-0.548144 -0.222039,-0.839942 -0.620181,0.49685 -1.013731,1.025522 -1.495489,1.541845 -0.09706,-0.06956 -0.181977,-0.305607 -0.257068,-0.678864 -1.479591,1.413608 -3.57012,4.97411 -0.537399,6.38586 2.579592,-2.096862 5.661945,-3.620442 9.07794,-4.763502 z"
         id="path6" />
      <path
         inkscape:connector-curvature="0"
         style="fill:#bc1142;stroke-width:0.01696774"
         d="m 41.450813,125.66691 c 0,2.63788 -2.354835,4.77643 -5.25967,4.77643 -2.904835,0 -5.259605,-2.13855 -5.259605,-4.77643 0,-2.63794 2.35477,-4.77643 5.259605,-4.77643 2.904835,0 5.25967,2.13849 5.25967,4.77643 z"
         id="path8" />
      <path
         inkscape:connector-curvature="0"
         style="fill:#bc1142;stroke-width:0.01696774"
         d="m 33.147305,112.02221 c 2.179322,1.40617 2.57216,4.59347 0.877441,7.11908 -1.694718,2.52568 -4.835166,3.43314 -7.014486,2.02705 v 0 c -2.179386,-1.40617 -2.572224,-4.59346 -0.877506,-7.11907 1.694719,-2.52569 4.835231,-3.43315 7.014551,-2.02706 z"
         id="path10" />
      <path
         inkscape:connector-curvature="0"
         style="fill:#bc1142;stroke-width:0.01696774"
         d="m 39.029998,111.76765 c -2.17932,1.40616 -2.572159,4.59346 -0.877441,7.11907 1.694719,2.52568 4.835166,3.43315 7.014487,2.02705 v 0 c 2.179388,-1.40616 2.572226,-4.59346 0.877506,-7.11908 -1.694719,-2.52567 -4.835231,-3.43313 -7.014552,-2.02704 z"
         id="path12" />
      <path
         inkscape:connector-curvature="0"
         style="fill:#bc1142;stroke-width:0.01696774"
         d="m 22.255613,114.32133 c 2.353155,-0.62095 0.794272,9.58678 -1.120162,8.7492 -2.105781,-1.66825 -2.784121,-6.55357 1.120162,-8.7492 z"
         id="path14" />
      <path
         inkscape:connector-curvature="0"
         style="fill:#bc1142;stroke-width:0.01696774"
         d="m 49.446591,114.19405 c -2.353157,-0.62095 -0.794339,9.58678 1.120096,8.74919 2.105845,-1.66823 2.784124,-6.55355 -1.120096,-8.74919 z"
         id="path16" />
      <path
         inkscape:connector-curvature="0"
         style="fill:#bc1142;stroke-width:0.01696774"
         d="m 41.452364,106.59302 c 4.060538,-0.67524 7.439054,1.70062 7.303089,6.03691 -0.133572,1.66238 -8.798901,-5.78941 -7.303089,-6.03691 z"
         id="path18" />
      <path
         inkscape:connector-curvature="0"
         style="fill:#bc1142;stroke-width:0.01696774"
         d="m 30.23323,106.46573 c -4.060539,-0.67523 -7.439055,1.70063 -7.30309,6.03691 0.133575,1.66239 8.798901,-5.7894 7.30309,-6.03691 z"
         id="path20" />
      <path
         inkscape:connector-curvature="0"
         style="fill:#bc1142;stroke-width:0.01696774"
         d="m 36.06597,105.45402 c -2.423529,-0.0622 -4.749413,1.7714 -4.755035,2.83486 -0.0068,1.29217 1.916115,2.61515 4.771578,2.64875 2.91595,0.0206 4.776554,-1.05906 4.785989,-2.39254 0.01068,-1.51085 -2.652033,-3.11443 -4.802532,-3.09107 z"
         id="path22" />
      <path
         inkscape:connector-curvature="0"
         style="fill:#bc1142;stroke-width:0.01696774"
         d="m 36.213955,131.9519 c 2.112954,-0.0909 4.948125,0.67021 4.953682,1.67989 0.03509,0.98039 -2.571254,3.1955 -5.093912,3.15267 -2.612484,0.11093 -5.174175,-2.10755 -5.140636,-2.87654 -0.03909,-1.12747 3.181095,-2.00776 5.280866,-1.95602 z"
         id="path24" />
      <path
         inkscape:connector-curvature="0"
         style="fill:#bc1142;stroke-width:0.01696774"
         d="m 28.409525,125.96876 c 1.504342,1.7849 2.190113,4.9207 0.934632,5.8451 -1.187693,0.70566 -4.071977,0.415 -6.121989,-2.48533 -1.382658,-2.43372 -1.20443,-4.91033 -0.233674,-5.63795 1.45161,-0.87093 3.694583,0.30536 5.421031,2.27818 z"
         id="path26" />
      <path
         inkscape:connector-curvature="0"
         style="fill:#bc1142;stroke-width:0.01696774"
         d="m 43.717372,125.40286 c -1.62764,1.87755 -2.533967,5.30198 -1.346596,6.40508 1.135284,0.85687 4.182933,0.7371 6.434114,-2.33921 1.634682,-2.06612 1.086945,-5.51658 0.153218,-6.43257 -1.386987,-1.05659 -3.378257,0.29561 -5.240736,2.3667 z"
         id="path28" />
      <text
         xml:space="preserve"
         style="font-style:normal;font-weight:normal;font-size:10.58333302px;line-height:6.61458302px;font-family:sans-serif;letter-spacing:0px;word-spacing:0px;fill:#c83737;fill-opacity:1;stroke:#000000;stroke-width:0.8;stroke-miterlimit:4;stroke-dasharray:none;stroke-linejoin:round;stroke-linecap:round;"
         x="55.147793"
         y="128.19023"
         id="text4518"><tspan
           sodipodi:role="line"
           id="tspan4516"
           x="55.147793"
           y="128.19023"
           style="font-style:normal;font-variant:normal;font-weight:normal;font-stretch:normal;font-size:35.27777863px;font-family:'Berlin Sans FB Demi';-inkscape-font-specification:'Berlin Sans FB Demi';fill:#c83737;stroke:#000000;stroke-width:0.8;stroke-miterlimit:4;stroke-dasharray:none;stroke-linejoin:round;stroke-linecap:round;">RetroPie</tspan></text>
    </g>
  </g>
</svg>
